<?xml version="1.0" encoding="utf-8"?>
<!-- Generator: Adobe Illustrator 16.0.0, SVG Export Plug-In . SVG Version: 6.00 Build 0)  -->
<!DOCTYPE svg PUBLIC "-//W3C//DTD SVG 1.1//EN" "http://www.w3.org/Graphics/SVG/1.1/DTD/svg11.dtd">
<svg version="1.1" id="Layer_1" xmlns="http://www.w3.org/2000/svg" xmlns:xlink="http://www.w3.org/1999/xlink" x="0px" y="0px"
	 width="40.957px" height="41.291px" viewBox="0 0 40.957 41.291" enable-background="new 0 0 40.957 41.291" xml:space="preserve">
<rect x="-0.375" y="-0.375" fill="#FFFFFF" width="41" height="41"/>
<path fill="none" stroke="#006837" stroke-miterlimit="10" d="M6.688,27.899c2.413-3.525,3.154-2.598,6.124-6.681
	c2.97-4.083,2.971-5.568,5.939-5.382s4.639,1.856,7.423,5.382S31,26.044,32.02,26.601c1.02,0.556,3.805,6.496-1.206,7.609
	c-5.557,1.233-8.353-0.928-8.537-1.485c-0.186-0.556-3.341-1.485-4.455-0.556c-1.113,0.927-6.309,3.155-8.536,2.228
	C7.06,33.467,4.274,31.425,6.688,27.899z"/>
<path fill="none" stroke="#006837" stroke-miterlimit="10" d="M31.928,18.843c0.092-1.486,2.412-7.053,4.268-6.682
	c1.856,0.37,2.854,1.299,2.506,3.178c-0.348,1.878-1.879,4.314-3.341,4.94C33.899,20.907,31.835,20.327,31.928,18.843z"/>
<path fill="none" stroke="#006837" stroke-miterlimit="10" d="M22.749,11.908c-0.329-1.452,0.332-7.446,2.218-7.612
	c1.885-0.166,3.104,0.445,3.298,2.346c0.193,1.901-0.59,4.669-1.817,5.681C25.221,13.335,23.077,13.359,22.749,11.908z"/>
<path fill="none" stroke="#006837" stroke-miterlimit="10" d="M14.849,4.69c0.641,1.343,1.318,7.336-0.485,7.913
	c-1.803,0.578-3.125,0.251-3.734-1.56c-0.607-1.812-0.453-4.685,0.52-5.942C12.122,3.843,14.208,3.348,14.849,4.69z"/>
<path fill="none" stroke="#006837" stroke-miterlimit="10" d="M6.063,14.397c0.949,1.146,3.063,6.794,1.456,7.792
	c-1.608,1-2.97,1.004-4.001-0.604c-1.031-1.609-1.58-4.433-0.943-5.889C3.213,14.238,5.115,13.251,6.063,14.397z"/>
</svg>
