<?xml version="1.0" encoding="utf-8"?>
<!-- Generator: Adobe Illustrator 16.0.0, SVG Export Plug-In . SVG Version: 6.00 Build 0)  -->
<!DOCTYPE svg PUBLIC "-//W3C//DTD SVG 1.1//EN" "http://www.w3.org/Graphics/SVG/1.1/DTD/svg11.dtd">
<svg version="1.1" id="Layer_1" xmlns="http://www.w3.org/2000/svg" xmlns:xlink="http://www.w3.org/1999/xlink" x="0px" y="0px"
	 width="40.957px" height="41.291px" viewBox="0 0 40.957 41.291" enable-background="new 0 0 40.957 41.291" xml:space="preserve">
<rect x="-0.375" y="-0.375" fill="#FFFFFF" width="41" height="41"/>
<path fill="none" stroke="#006837" stroke-miterlimit="10" d="M21.549,39.144c0,0-2.592-4.514-2.771-7.91
	c-0.183-3.484-0.391-7.855-0.391-7.855s-4.675-4.675-5.748-5.479s-1.6-3.477-1.6-3.477l-1.471-0.667c0,0-1.65-1.558-0.845-2.898
	c0.804-1.341,2.145-1.609,2.815-1.341c0.67,0.268,1.385,1.563,1.251,3.305c-0.134,1.743,6.301,4.693,6.301,4.693L19.046,7.504
	c0,0-1.563-0.046-1.832-0.851c-0.269-0.805-0.358-2.947,0.268-3.53c0.626-0.581,2.859-0.804,3.529-0.356
	c0.67,0.446,1.341,1.653,0.537,2.725c-0.805,1.073-0.447,1.609-0.447,1.609c0.805,1.073,0.938,10.143,0.938,10.143
	s6.972-4.826,7.91-4.558c0.938,0.268-0.581-3.037,1.296-3.439s2.19,0.358,2.592,1.163c0.402,0.804-0.804,2.189-1.877,2.457
	c-1.073,0.269-0.536,1.832-0.536,1.832l-6.837,8.714l-0.581,7.508C24.007,30.92,22.889,38.875,21.549,39.144z"/>
</svg>
