<?xml version="1.0" encoding="utf-8"?>
<!-- Generator: Adobe Illustrator 16.0.0, SVG Export Plug-In . SVG Version: 6.00 Build 0)  -->
<!DOCTYPE svg PUBLIC "-//W3C//DTD SVG 1.1//EN" "http://www.w3.org/Graphics/SVG/1.1/DTD/svg11.dtd">
<svg version="1.1" id="Layer_1" xmlns="http://www.w3.org/2000/svg" xmlns:xlink="http://www.w3.org/1999/xlink" x="0px" y="0px"
	 width="40.957px" height="41.291px" viewBox="0 0 40.957 41.291" enable-background="new 0 0 40.957 41.291" xml:space="preserve">
<rect x="-0.375" y="-0.375" fill="#FFFFFF" width="41" height="41"/>
<path fill="none" stroke="#006837" stroke-miterlimit="10" d="M20.729,33.245c0.293,4.839-3.006,4.619-6.379,4.692
	s-6.562-2.383-6.085-20.824C8.924,7.289,13.543,2.548,18.677,2.499c0,0-0.184,20.554,0.293,21.067s2.97,0.733,3.08,0.073
	c0.11-0.66-0.073-21.043-0.073-21.043s10.338-0.733,11.071,14.811c0.733,15.545-0.403,19.577-3.959,20.237
	c-3.82,0.71-6.581-1.283-7.094-4.362C21.701,33.299,21.426,33.282,20.729,33.245z"/>
</svg>
